<?xml version="1.0" encoding="utf-8"?>
<!-- Generator: Adobe Illustrator 17.0.0, SVG Export Plug-In . SVG Version: 6.00 Build 0)  -->
<!DOCTYPE svg PUBLIC "-//W3C//DTD SVG 1.1//EN" "http://www.w3.org/Graphics/SVG/1.1/DTD/svg11.dtd">
<svg version="1.1" id="Capa_1" xmlns="http://www.w3.org/2000/svg" xmlns:xlink="http://www.w3.org/1999/xlink" x="0px" y="0px"
	 width="283.46px" height="283.46px" viewBox="0 0 283.46 283.46" enable-background="new 0 0 283.46 283.46" xml:space="preserve">
<g id="g10" transform="matrix(1.25,0,0,-1.25,0,822.5)">
	<g id="g12" transform="scale(0.1,0.1)">
		<path id="path14" fill="#FFFFFF" d="M1948.219,5464.6c-5.66,12.43-30.94,52.35-25.65,65.1c9.28,22.4-6.41,26.35-7.9,44.22
			c-2.91,34.19-77.61,31.36-103.78,23.81c-15.13-4.35-31.99-14.44-48.98-27.01c-0.67,16.21-2.1,32.21-3.83,48.13
			c7.83-7.53,18.39-12.2,30.1-12.2c24.03,0,43.52,19.48,43.52,43.52c0,24.02-19.49,43.49-43.52,43.49
			c-16.28,0-30.28-9.01-37.74-22.24c-61.27,327.94-348.89,576.19-694.6,576.19c-390.34,0-706.76-316.42-706.76-706.77
			c0-64.01,8.56-126.04,24.53-185.02c-9.41-1.09-18.81-2.11-28.26-4.26c-23.94-5.4-34.25-36.76-54.23-49.8
			c-25.01-16.36,12.28-71.42,20.24-84.35c36.12-24.72,64.36-114.73,82.24-150.88c27.96-56.56,50.12-115.65,71.42-174.96
			c5.87-16.47,79.3-220.69,106.03-187.1c10.67,13.41,15.76,24.45,32.52,28.31c22.22,5.11,12.47,16.64,24.6,24.11
			c38.26,23.61-6.96,116.16-17.34,145.61c-8.75,24.94-24.63,38.99-1.45,55.54c7.96,5.7,15.91,11,23.77,16.34
			c117.9-88.1,264.2-140.27,422.69-140.27c230.19,0,434.63,110.06,563.67,280.4c5.31,0.48,10.64,0.98,15.94,1.59
			c11.43,1.3,36.48-7.43,45.04-2.59c-1.21-0.68,5.64,9.8,12.49,19.88c16.63-5.94,35.12-8.46,55.62-6.55
			c53.88,13.25,86.55,54.86,111.41,101c5.63,10.45,36.75,60.19,27.79,69.84c14.42-16.61,16.59-58.93,34.73-71.62
			c29.57-20.74,59.95,10.17,74.91,31.26C2049.469,5330.759,1979.799,5395.389,1948.219,5464.6L1948.219,5464.6"/>
		<path id="path16" fill="#DA2228" d="M1758.719,5663.069c1.76,3.85,4.11,7.12,7.06,9.82c2.97,2.7,6.37,4.8,10.25,6.26
			c3.86,1.48,7.92,2.21,12.15,2.21s8.29-0.73,12.15-2.21c3.88-1.46,7.3-3.56,10.25-6.26c2.95-2.7,5.29-5.97,7.06-9.82
			c1.75-3.85,2.62-8.13,2.62-12.87c0-4.8-0.87-9.11-2.62-12.94c-1.77-3.85-4.11-7.15-7.06-9.88c-2.95-2.71-6.37-4.81-10.25-6.25
			c-3.86-1.46-7.92-2.18-12.15-2.18s-8.29,0.72-12.15,2.18c-3.88,1.44-7.28,3.54-10.25,6.25c-2.95,2.73-5.3,6.03-7.06,9.88
			c-1.76,3.83-2.63,8.14-2.63,12.94C1756.089,5654.939,1756.959,5659.219,1758.719,5663.069L1758.719,5663.069z M1766.459,5640.349
			c1.22-3.02,2.89-5.61,5.01-7.82c2.11-2.2,4.6-3.92,7.48-5.15c2.87-1.21,5.93-1.84,9.23-1.84c3.23,0,6.28,0.63,9.14,1.84
			c2.89,1.23,5.37,2.95,7.49,5.15c2.1,2.21,3.79,4.8,5.05,7.82c1.25,3,1.88,6.29,1.88,9.85c0,3.57-0.63,6.84-1.88,9.83
			c-1.26,2.97-2.95,5.55-5.05,7.72c-2.12,2.17-4.6,3.88-7.49,5.1c-2.86,1.23-5.91,1.83-9.14,1.83c-3.3,0-6.36-0.6-9.23-1.83
			c-2.88-1.22-5.37-2.93-7.48-5.1c-2.12-2.17-3.79-4.75-5.01-7.72c-1.24-2.99-1.84-6.26-1.84-9.83
			C1764.619,5646.639,1765.219,5643.349,1766.459,5640.349L1766.459,5640.349z M1788.929,5667.749c4.41,0,7.79-0.78,10.14-2.34
			c2.4-1.56,3.58-4.23,3.58-8.03c0-1.6-0.25-3-0.74-4.14c-0.44-1.13-1.12-2.07-1.95-2.78c-0.84-0.74-1.81-1.29-2.92-1.69
			c-1.11-0.38-2.32-0.63-3.59-0.74l9.35-15.29h-7.26l-8.53,14.96h-4.33v-14.96h-6.95v35.01H1788.929L1788.929,5667.749z
			 M1788.849,5653.129c2.01,0,3.65,0.28,4.92,0.82c1.29,0.57,1.93,1.91,1.93,4.03c0,0.94-0.23,1.69-0.67,2.25
			c-0.44,0.55-1.02,0.99-1.7,1.29c-0.71,0.31-1.49,0.52-2.36,0.63c-0.86,0.11-1.67,0.17-2.45,0.17h-5.84v-9.19L1788.849,5653.129
			L1788.849,5653.129"/>
		<path id="path18" fill="#DA2228" d="M666.799,4999.35c-0.99-0.81-1.91-1.71-2.91-2.51c-2.59-2.13-5.26-4.1-7.9-6.11
			c68.94-50.2,147.65-87.75,232.78-109.25c-3.82,5.3-7.4,10.97-10.72,16.63C801.159,4919.32,729.859,4953.97,666.799,4999.35
			L666.799,4999.35L666.799,4999.35z M922.209,5778.85c0,22.83,7.13,99.86,69.89,99.86c52.78,0,66.33-50.63,66.33-93.43v-20.69
			h-136.22V5778.85L922.209,5778.85z M1118.349,5659.03h-59.92c0-28.52-7.84-88.44-64.9-88.44c-73.47,0-73.47,88.44-73.47,146.92
			h201.13v24.25c0,82.03-10.69,184.03-127.66,184.03c-117.68,0-136.24-110.54-136.24-206.14c0-131.24,39.23-196.14,132.66-196.14
			C1094.099,5523.509,1118.349,5618.379,1118.349,5659.03L1118.349,5659.03L1118.349,5659.03z M1561.929,5106.81
			c-122.27-142.45-303.63-232.72-506.09-232.72c-18.5,0-36.81,0.81-54.92,2.28c0.33-3.6,0.73-7.19,0.91-10.79
			c0.04-0.96-0.37-1.81-1.08-2.59c18.18-1.45,36.54-2.22,55.09-2.22c212.25,0,401.77,97.25,526.48,249.59
			c-0.68-0.1-1.39-0.18-2.08-0.28C1574.119,5109.049,1568.019,5107.949,1561.929,5106.81L1561.929,5106.81L1561.929,5106.81z
			 M1334.289,5888.95v6.65c48.83,0,98.87,44.14,98.87,107.48c0,5.8-1.39,10.69-4.13,14.66c-2.14,2.74-4.27,4.12-6.4,4.12
			c-3.37,0-10.69-3.05-21.98-9.15c-5.48-2.76-11.29-4.12-17.38-4.12c-14.96,0-26.87,4.41-35.7,13.27
			c-8.86,8.84-13.28,21.04-13.28,36.61c0,14.95,5.72,27.76,17.17,38.45c11.44,10.68,25.4,16.02,41.87,16.02
			c20.14,0,38.06-8.78,53.78-26.32c15.71-17.54,23.56-40.81,23.56-69.79C1470.67,5949.45,1399.43,5888.95,1334.289,5888.95
			L1334.289,5888.95L1334.289,5888.95z M1735.799,5549.67c-1.36,105.04-26.47,204.35-70.28,292.77c-0.57,1.12-1.12,2.26-1.69,3.38
			c-3.7,7.36-7.52,14.66-11.48,21.87c-0.1,0.18-0.2,0.36-0.31,0.55c-43.44,78.95-102.1,148.32-172.05,204.2
			c-4.53,10.19-10.46,19.45-17.81,27.67c-19.67,21.92-42.83,33.04-68.85,33.04c-0.99,0-1.92-0.09-2.9-0.12
			c-98.79,55.95-212.95,87.92-334.59,87.92c-375.61,0-680.08-304.5-680.08-680.11c0-62.96,8.6-123.9,24.61-181.76
			c4.45-1.84,11.55-8.82,19.1-17.74c-19.73,63-30.38,130.01-30.38,199.5c0,208.14,95.38,393.96,244.78,516.22v-452.23
			c0-49.94,14.97-75.62,77.03-75.62s115.88,21.11,115.9,21.12v49.22c0,0-45.01-18.99-93.8-18.99c-31.38,0-39.22,12.13-39.22,42.81
			v477.41c104.26,67.57,228.56,106.82,362.06,106.82c113.13,0,219.66-28.22,313-77.93c-11.55-3.45-22.01-9.42-31.19-17.97
			c-15.42-14.42-23.58-32.82-23.58-53.23c0-21.05,6.47-38.18,19.19-50.9c12.73-12.74,29.54-19.19,50.01-19.19
			c9.22,0,18.1,2.09,26.42,6.23l0.3,0.15l0.29,0.17c0.86,0.43,1.63,0.88,2.42,1.28c-3.38-48.38-42.13-80.41-78.41-80.41h-86.55
			v111.27h-59.91v-111.27h-55.63v-47.07h55.63v-263.9c0-49.94,14.97-75.62,77.02-75.62c24.97,0,40.66,2.86,48.5,4.28v49.21
			c-6.41-0.71-13.55-2.14-26.39-2.14c-31.37,0-39.22,12.13-39.22,42.81v245.36h86.55c72.43,0,156.6,64.69,156.6,148.1
			c0,11.41-1.18,22.07-3.35,32.1c44.01-37.44,83.1-80.48,116.16-128.05c-12.26,3.13-26.59,4.91-43.37,4.91
			c-66.35,0-121.98-34.23-121.98-105.56c0-79.18,47.79-92.73,94.15-108.42c46.37-15.7,93.45-26.39,93.45-77.75
			c0-54.19-44.23-63.47-63.49-63.47c-58.49,0-71.32,42.08-71.32,88.44h-59.92c0-39.23,1.43-135.52,131.24-135.52
			c71.32,0,123.4,39.21,123.4,119.82c0,75.59-47.07,92.01-93.45,107.7c-47.07,15.71-94.15,24.24-94.15,69.2
			c0,53.49,42.8,58.48,62.07,58.48c43.49,0,56.33-26.39,56.33-74.89h52.03c34.68-80.7,53.91-169.57,53.91-262.98
			c0-0.96-0.04-1.94-0.04-2.91C1726.879,5541.859,1731.309,5545.779,1735.799,5549.67"/>
		<path id="path20" fill="#47B649" d="M587.999,5039.919c0.68,0.15,1.2,0.16,1.57,0.02c0.39-0.12,0.91-0.12,1.56,0.04
			c5.33,1.2,10.86,5.21,16.66,12c5.78,6.8,11.26,15.28,16.46,25.45c5.18,10.15,9.82,21.18,13.93,33.07
			c4.1,11.88,7.28,23.53,9.54,35.01c4.63,22.5,6.92,46.11,6.86,70.82c-0.07,24.73-2.66,48.31-7.81,70.78
			c-4.86,21.2-12.12,39.9-21.75,56.07c-9.64,16.19-22.04,27.58-37.19,34.17c-5.07,2.35-9.26,3.13-12.59,2.39
			c-2.66-0.64-4.74-2.2-6.25-4.72c-1.52-2.54-3.35-6.02-5.48-10.45c-15.64-32.48-25.77-66.42-30.42-101.84
			c-4.66-35.44-6.15-72.86-4.46-112.32c1.31-1,3.24-9.54,3.02-13.09c2.64,0.62-0.92-6,0.41-7.13c0,0,8.33-26.54,10.42-35.69
			c1.14-5,2.78-10.64,4.93-16.95c2.14-6.28,5.06-12.17,8.76-17.67c3.72-5.5,8.11-10.19,13.19-14.06
			C574.429,5041.959,580.649,5039.989,587.999,5039.919L587.999,5039.919L587.999,5039.919z M562.039,4736.549
			c-1.15,1.91-2.1,3.8-2.87,5.58c-0.75,1.78-1.4,3.07-1.92,3.83c-4.65-1.07-20.05,27.34-34.2,63.19c0,0,0,0-10.84,30.54
			c-10.85,30.59-21.74,61.03-32.71,91.34c-10.96,30.33-22.9,60.75-35.83,91.28c-12.93,30.53-28.21,62.15-45.84,94.88
			c-11.44,21.01-22.33,41.51-32.67,61.48c-10.34,19.94-20.77,39.24-31.33,57.83c-2.51,0.29-4.43,1.04-5.77,2.29
			c-1.32,1.22-2.51,2.58-3.56,4.1c-1.04,1.51-1.85,3.52-2.41,6.01c0.58-1.33,1.27-2.23,1.5-2.05c0,0,0,0-0.07,0.41
			c-0.11,0.42-0.34,1.02-0.69,1.8c-0.35,0.8-0.73,2.03-1.11,3.71c-2.74-0.65-6.48,8.16-8.31,19.52c0,0,0,0-0.81,11.2
			c5.17,3.39,9.5,7.33,13.02,11.85c3.49,4.52,8.83,8.7,15.99,12.53c-1.34,5.83,0.12,10.49,3.23,10.37c0,0,0,0,3.74,0.41
			c0.11,3.28,1.34,6.21,2.7,6.55c1.37,0.3,7.85,1.42,14.36,2.51c0,0,0,0,5.82-0.21s11.55,0.35,17.19,1.64
			c1.01,0.22,1.88,0.54,2.68,0.94c0.77,0.4,1.66,0.71,2.64,0.95c5.71-9.65,10.64-17.83,14.8-24.54c4.16-6.71,7.83-12.86,11.04-18.48
			c3.22-5.6,6.16-10.85,8.85-15.7c2.68-4.86,5.67-10.29,8.97-16.34c3.3-6.01,7.01-12.73,11.15-20.1
			c4.14-7.36,9.15-16.29,15.05-26.75c4.63,25.57,9.86,50.83,15.68,75.82c5.82,24.96,13.48,47.94,23.01,68.94
			c9.52,21,21.68,38.89,36.48,53.66c14.78,14.78,33.49,24.73,56.07,29.89c18.59,4.27,39.42,4.88,62.49,1.85
			c0.52-0.76,1.05-1.63,1.64-2.6c0.56-0.94,1.38-2.2,2.42-3.69c4.66,1.06,18.95-9.37,31.76-23.17c0,0,0,0,8.58-16.86
			c8.58-16.85,15.31-35.9,20.15-57.09c5.61-24.54,8.5-52.01,8.64-82.4s-2.87-60.41-9.02-90.03c-6.14-29.66-15.31-57.47-27.56-83.47
			c-12.2-25.99-27.93-46.67-47.14-62c-19.11-15.76-41.87-30.82-68.3-45.18c-0.57-0.55-1.35-0.97-2.34-1.19
			c-2.66-0.62-5.5-0.49-8.48,0.37c-2.99,0.84-5.82,0.95-8.47,0.34c2.99-11.56,6.82-24.04,11.45-37.44
			c4.64-13.37,9.46-27.15,14.45-41.35c5-14.16,9.82-28.38,14.47-42.62c4.66-14.26,8.41-27.63,11.27-40.11
			c2.68-11.62,4.24-21.55,4.73-29.77c-2.14-1.37-4.59-2.79-7.4-4.32c-2.79-1.51-5.29-3.18-7.51-4.99c-2.21-1.82-3.92-3.85-5.16-6.13
			c-1.23-2.22-1.56-4.61-0.99-7.1c-9.04-2.08-17.95-4.2-19.8-4.76c0,0,0,0-0.72-0.6c-0.74-0.62-1.52-1.44-2.32-2.49
			c-0.81-1.08-1.92-2.74-3.32-5.04C567.218,4743.299,565.018,4740.299,562.039,4736.549"/>
		<path id="path22" fill="#47B649" d="M973.639,4888.12c-8.09,2.1-13.54,2.8-16.34,2.1c-1.55-0.39-2.17-1.16-1.9-2.33
			c0.18-0.65,0.42-2.54,0.58-4.23c0,0,0,0-0.93-0.22c-1.25-0.31-2.89,0.03-4.93,0.95c-2.05,0.93-4.12,2.26-6.22,4.01
			c-2.08,1.74-4.02,3.54-5.8,5.36c-1.77,1.83-3.02,3.48-3.71,4.97c-2.81-0.72-4.27-2.85-3.27-4.76c0,0,0,0,0.1-0.39
			c-0.1-0.69,1.24-3.06,2.97-5.23c0,0,0,0,5.4-4.44c-8.18-2.04-29.21,17.4-46.72,43.22c0,0,0,0-11.79,21.42
			c-11.8,21.39-21.79,41.17-29.98,59.38c-3,6.66-6.39,14.91-10.16,24.7c-3.77,9.78-7.64,20.59-11.58,32.41
			c-3.97,11.82-7.76,23.97-11.4,36.49c-3.62,12.5-6.91,24.58-9.83,36.25c-4.88,19.43-7.31,33.79-7.35,43.07
			c-0.03,9.28,1.21,14.23,3.69,14.88c1.33-1.35,3-2.79,5.04-4.34c-0.48,1.95-0.3,3.84,0.54,5.72c2.83,0.72,4.91,4.67,4.65,8.82
			c0,0,0,0,2.54,1.04c2.55,1.05,5.2,1.93,7.99,2.61c9.62,2.43,18.46,2.67,26.52,0.77c8.06-1.89,14.29-7.66,18.7-17.29
			c0.69-1.49,1.96-5.6,3.84-12.36c1.86-6.75,4.19-15.07,6.98-24.9c2.78-9.83,5.91-20.59,9.35-32.34
			c3.44-11.73,6.81-23.17,10.11-34.32c3.28-11.14,6.35-21.44,9.21-30.83c2.84-9.41,5.27-16.76,7.26-22.03
			c5.14-14,11.05-28.31,17.7-42.95c6.63-14.66,12.98-28.45,19.05-41.39c6.02-12.92,11.27-24.3,15.73-34.15
			c4.44-9.83,7.11-16.48,7.99-19.97c1.06-4.3,0.65-6.57-1.26-6.84C974.479,4890.71,973.579,4889.76,973.639,4888.12L973.639,4888.12
			L973.639,4888.12z M842.949,5280.939c-13.66-19.14-29.35-30.9-47.04-35.34c-9-2.26-16.15-0.95-21.51,3.91
			c-5.33,4.82-9.26,12.32-11.79,22.42c-0.08,2.88-0.71,6.74-1.94,11.6c-1.22,4.87-1.86,11.39-1.97,19.64
			c3.76,2.19,8.62,5.46,14.62,9.87c5.98,4.38,11.14,7.13,15.5,8.22c2.47,0.62,12.15,2.12,13.21,0.53c1.06-1.59,2-2.71,2.8-3.32
			c0.09-1.62,0.09-2.97,0.03-4.03c-0.06-1.04-0.15-1.99-0.28-2.86c5.47,7.16,10.06,11.22,13.78,12.12c4.96,1.28,8.94-2.07,11.92-10
			c4.85-14.08,8.94-22.54,12.32-25.42c0.14-3.27,0.27-5.7,0.35-7.34"/>
		<path id="path24" fill="#47B649" d="M1017.269,5259.39c6.81-3.92,11.26-6.62,13.28-8.01c2.03-1.41,11.83-7.86,12.85-8.33
			c1.03-0.51,2.38-0.97,4.07-1.44c1.7-0.46,5.91-2.03,12.64-4.76c-0.97-2.04-1.99-3.46-3.07-4.26c-1.05-0.81-4.4-2.43-9.99-4.85
			c0-3.8,0.61-7.42,1.82-10.82c-2.74-0.98-5.55-6.94-6.23-13.27c0,0,0,0-1.73-2.3c-1.72-2.32-4.6-5.46-8.61-9.45
			c1.32-3.74-0.75-9.35-4.58-12.47c0,0,0,0-2.91-2.3c-2.92-2.3-5.44-4.27-7.58-5.88c-7.08,9.38-24.23,22.66-34.93,28.86
			c-10.67,6.22-21.49,12.25-32.4,18.14c-10.93,5.89-21.02,12.41-30.35,19.52c-9.32,7.09-16,16.32-20.01,27.64
			c-1.48,4.17-2.38,9.56-2.72,16.25c-0.34,6.7,0.52,13.6,2.58,20.69c2.07,7.1,5.7,13.82,10.92,20.13
			c5.23,6.34,12.82,11.25,22.77,14.81c7.22,2.55,14.76,4.27,22.6,5.13c7.83,0.89,15.91,1.31,24.25,1.3
			c8.31-0.03,16.63-0.05,24.95-0.07c8.34-0.02,16.66,0.18,25,0.59c28.77,2.14,57.56,4.18,86.42,6.15
			c28.88,1.97,57.02,3.56,84.42,4.79c4.77,0,7.86,0.13,9.28,0.42c1.43,0.3,3.2-2.59,5.35-8.6c2.99-8.43,3.49-17,1.09-19.08
			c0,0,0,0-1.76-1.27c-1.77-1.26-3.17-2.59-4.17-4.04c-1.02-1.42-1.66-3.24-1.89-5.44c-0.24-2.2-0.2-5.16,0.09-8.89
			c-2.71-0.96-8.61-18.27-13.08-38.44c0,0,0,0-6.66-22.78c-6.68-22.78-15.63-45.71-26.8-68.82c-5.49-11.29-10.28-21.5-14.33-30.6
			c-4.08-9.09-7.9-17.68-11.47-25.75c-3.59-8.06-7.09-15.91-10.5-23.49c-3.4-7.58-7.21-15.52-11.41-23.81
			c1.01-0.94,2.22-2.41,3.64-4.48c12.52,4.89,27.3,11.11,44.31,18.62c17.02,7.54,39.1,16.11,66.26,25.76
			c13.27,4.72,26.69,8.54,40.26,11.44c13.56,2.91,26.46,4.6,38.68,5.12c12.19,0.5,23.48-0.47,33.87-2.95
			c10.4-2.46,19.11-6.92,26.14-13.36c-0.64-1.07-1.19-2.13-1.67-3.13c-0.5-1.04-0.91-2.02-1.23-3c0.85-0.54,1.76-1.17,2.7-1.9
			c0.95-0.74,1.85-1.37,2.72-1.92c-0.87-3.28-2.4-6.14-4.58-8.63c-2.19-2.48-4.11-5.08-5.87-7.81c-1.74-2.77-3.07-5.68-4.03-8.78
			c-0.93-3.08-0.66-6.71,0.82-10.87c-2.74-0.97-4.43-3.29-3.77-5.17c0.67-1.87-0.75-3.69-3.13-4.07c0,0,0,0-1.94-0.27
			c-1.96-0.27-3.96-0.33-6.02-0.23c-0.21-1.35-0.38-2.81-0.51-4.34c-0.13-1.52-0.17-3.34-0.09-5.44c-1.19,0.43-2.32,0.56-3.46,0.37
			c-1.11-0.19-2.04-0.2-2.77-0.02c1.3-3.75-21.56-8.91-50.85-11.48c0,0,0,0-28.34-5.81c-28.32-5.82-56.69-13.75-85.03-23.83
			c-31.65-11.23-61.58-24.75-89.75-40.47c-28.16-15.75-52.83-33.55-73.97-53.39c-2.98,3.62-5.81,7.28-8.48,11.01
			c-2.69,3.72-4.77,7.67-6.23,11.82c-2.97,8.31-2.9,19.59,0.16,33.86c3.11,14.26,8.17,29.89,15.2,46.86
			c7.05,16.93,15.27,34.65,24.69,53.07c9.4,18.43,18.73,36.1,28.02,53c17.9,32.72,30.97,61.38,39.19,86
			c8.25,24.6,14.18,43.71,17.83,57.34c-2.22,0.49-4.52,1.04-6.96,1.67c-2.41,0.61-5.49,1.35-9.17,2.17
			c-3.67,0.81-8.16,1.44-13.41,1.91c-5.27,0.48-11.91,0.54-19.95,0.25c-6.7-0.25-13.36-0.6-20.01-1.04
			c-6.62-0.44-12.73-0.92-18.33-1.41c-5.6-0.52-10.26-0.99-14-1.47c-3.72-0.48-5.88-0.82-6.49-1.01c-0.26-0.09,1.27,0.44,3.39,1.18
			c2.11,0.75,4.2-0.09,4.64-1.85c0,0,0,0-0.39-0.79c-0.41-0.79-1.75-1.78-4.01-3.02c0.86-0.54,1.64-1.31,2.36-2.34
			C1015.599,5260.739,1016.379,5259.939,1017.269,5259.39"/>
		<path id="path26" fill="#47B649" d="M1348.139,5377.419c6.56-4.36,10.83-7.31,12.78-8.82c1.91-1.53,11.33-8.54,12.33-9.09
			c0.98-0.56,2.31-1.11,3.97-1.67c1.67-0.55,5.77-2.37,12.34-5.48c-1.1-1.99-2.22-3.35-3.33-4.09c-1.1-0.76-4.54-2.18-10.26-4.23
			c-0.23-3.82,0.16-7.46,1.17-10.92c-2.79-0.81-5.94-6.62-7.03-12.87c0,0,0,0-1.86-2.2c-1.86-2.23-4.92-5.18-9.16-8.92
			c1.11-3.8-1.29-9.28-5.3-12.18c0,0,0,0-3.06-2.1c-3.04-2.16-5.68-3.95-7.9-5.45c-6.51,9.82-22.85,24.09-33.14,30.92
			c-10.3,6.83-20.72,13.49-31.25,20.04c-10.58,6.53-20.29,13.63-29.15,21.28c-8.87,7.65-14.98,17.26-18.33,28.79
			c-1.23,4.24-1.81,9.69-1.74,16.38c0.07,6.71,1.33,13.54,3.82,20.5c2.48,6.98,6.5,13.46,12.09,19.45
			c5.6,5.99,13.46,10.46,23.6,13.4c7.37,2.13,15,3.4,22.88,3.81c7.88,0.38,15.96,0.34,24.29-0.18c8.28-0.52,16.6-1.02,24.91-1.54
			c8.3-0.53,16.63-0.83,24.98-0.92c28.86,0.43,57.74,0.75,86.63,0.99c28.91,0.24,57.07,0.14,84.5-0.27
			c4.75-0.29,7.85-0.33,9.29-0.11c1.43,0.19,3.05-2.77,4.82-8.94c2.48-8.57,2.45-17.17-0.05-19.1c0,0,0,0-1.83-1.14
			c-1.84-1.16-3.31-2.41-4.41-3.78c-1.1-1.35-1.85-3.14-2.21-5.32c-0.36-2.2-0.51-5.15-0.43-8.88c-2.79-0.83-9.69-17.74-15.37-37.6
			c0,0,0,0-7.99-22.36c-8.05-22.33-18.3-44.69-30.8-67.06c-6.15-10.97-11.54-20.87-16.12-29.7c-4.61-8.84-8.96-17.17-13.01-25.04
			c-4.05-7.82-8-15.43-11.88-22.81c-3.85-7.39-8.11-15.07-12.79-23.08c0.95-1,2.07-2.55,3.35-4.69c12.78,4.13,27.9,9.44,45.34,15.95
			c17.43,6.5,39.95,13.75,67.63,21.75c13.52,3.91,27.13,6.91,40.86,9.01c13.72,2.07,26.71,3.02,38.9,2.81
			c12.21-0.21,23.43-1.88,33.66-4.97c10.21-3.1,18.63-8.05,25.29-14.89c-0.69-1.02-1.31-2.05-1.87-3.05
			c-0.55-0.99-1.02-1.95-1.4-2.92c0.83-0.58,1.71-1.26,2.58-2.05c0.91-0.76,1.77-1.47,2.6-2.07c-1.05-3.22-2.77-6-5.05-8.35
			c-2.34-2.32-4.45-4.8-6.36-7.44c-1.89-2.65-3.41-5.48-4.53-8.52s-1.08-6.67,0.16-10.91c-2.79-0.82-4.63-3-4.06-4.92
			c0.55-1.9-0.98-3.64-3.37-3.9c0,0,0,0-1.95-0.14c-1.97-0.15-3.97-0.11-6.04,0.14c-0.29-1.34-0.53-2.76-0.76-4.31
			c-0.22-1.5-0.37-3.33-0.43-5.43c-1.14,0.49-2.27,0.69-3.42,0.59c-1.11-0.14-2.05-0.1-2.77,0.13c1.08-3.82-22.05-7.61-51.44-8.42
			c0,0,0,0-28.62-4.12c-28.62-4.1-57.36-10.33-86.23-18.69c-32.29-9.34-62.94-21.03-92.04-35.07c-29.04-14.03-54.74-30.33-77-48.86
			c-2.78,3.79-5.37,7.63-7.82,11.51s-4.3,7.92-5.53,12.14c-2.44,8.5-1.7,19.74,2.23,33.81c3.91,14.07,9.9,29.34,17.95,45.84
			c8.03,16.53,17.31,33.7,27.78,51.53c10.5,17.84,20.88,34.92,31.13,51.25c19.83,31.57,34.59,59.39,44.29,83.48
			c9.69,24.07,16.75,42.78,21.21,56.18c-2.18,0.62-4.46,1.32-6.85,2.09c-2.4,0.78-5.4,1.66-9.03,2.71
			c-3.63,1.03-8.06,1.95-13.27,2.71c-5.23,0.79-11.85,1.26-19.89,1.45c-6.71,0.13-13.39,0.18-20.03,0.13
			c-6.65-0.04-12.78-0.14-18.39-0.3c-5.61-0.17-10.3-0.39-14.06-0.63c-3.75-0.26-5.94-0.49-6.56-0.65c-0.25-0.08,1.3,0.38,3.47,1
			c2.15,0.63,4.18-0.34,4.53-2.13c0,0,0,0-0.46-0.74c-0.44-0.77-1.84-1.69-4.18-2.77c0.83-0.61,1.57-1.45,2.22-2.51
			C1346.548,5378.85,1347.288,5377.99,1348.139,5377.419"/>
		<path id="path28" fill="#47B649" d="M1755.239,5255.739c1.26-0.89,2.68-1.13,4.19-0.65c2.46,0.7,4.69,2.8,6.67,6.31
			c1.99,3.46,4.29,6.44,6.91,8.85c7.2,6.27,13.86,16.85,20.05,31.76c6.17,14.92,11.39,30.82,15.67,47.7
			c4.27,16.89,7.21,33.17,8.84,48.85c1.61,15.7,1.26,27.59-1.09,35.66c-1,3.47-2.64,6.32-4.96,8.57c-1.44,5.01-2.36,9.32-2.77,12.97
			c-0.36,3.64-1.24,7.77-2.56,12.39c-3.02,1.22-6.23,1.65-9.62,1.28c-3.41-0.35-7.09-1.12-11.08-2.27
			c-8.6-2.5-17.52-6.43-26.83-11.82c-9.25-5.39-18.19-11.84-26.82-19.34c-8.67-7.51-16.63-15.97-23.89-25.38
			c-7.28-9.39-13.32-19.26-18.16-29.64c-4.83-10.36-7.93-21.15-9.37-32.41c-1.38-11.25-0.54-22.26,2.57-33.03
			C1689.789,5292.07,1713.878,5272.14,1755.239,5255.739L1755.239,5255.739L1755.239,5255.739z M1892.519,5521.889
			c7.88-16.89,15.64-33.93,23.28-51.12c7.65-17.18,15.44-34.1,23.45-50.77c7.96-16.66,16.47-33.08,25.48-49.23
			c8.99-16.15,18.6-31.53,28.82-46.08c0.51-0.69,1.01-1.8,1.45-3.34c1.01-3.46,0.18-8.08-2.49-13.85
			c-2.81-7.49-5.43-13.77-7.78-18.83c-2.37-5.06-4.67-9.18-6.94-12.32c-2.23-3.16-4.45-5.57-6.63-7.27
			c-2.19-1.66-4.66-2.88-7.41-3.69c1.55-5.41,1.67-10.14,0.29-10.54c-1.39-0.41-2.15-2.04-1.69-3.63c0.46-1.57-3.64-2.57-9.11-2.22
			c0,0,0,0-2.86,1.26c-2.85,1.26-6.41,1.7-10.62,1.32c-1,3.49-4.75,10.99-8.31,16.68c0,0,0,0-2.45,4.91
			c-2.41,4.92-4.6,9.61-6.55,14.07c-1.94,4.44-3.91,8.87-5.84,13.32c-1.94,4.42-4.23,8.77-6.77,13.04
			c-1.38,1.28-2.95,3.53-4.72,6.77s-3.71,6.75-5.77,10.53c-2.12,3.77-4.44,7.48-6.98,11.13c-2.57,3.63-5.21,6.72-7.95,9.28
			c-0.1,1.34-0.74,2.82-1.45,3.32c-0.67,0.48-2.44-0.55-3.91-2.3c0,0,0,0-2.56-5.52c-2.55-5.53-5.18-12.03-7.85-19.49
			c-2.68-7.43-5-14.67-6.95-21.7c-1.97-7.03-3.04-12.02-3.15-15c-1.53-0.41-8.17-16.24-14.75-35.11c0,0,0,0-7.45-15.09
			c-7.46-15.08-15.81-28.44-25.1-40.09s-19.16-21.29-29.61-28.91c-10.46-7.61-21.2-13.02-32.27-16.21
			c-19.36-5.61-39.01-3.26-58.98,7.02c-19.96,10.27-38.5,30.66-55.64,61.16c-9.53,16.84-16.14,31.6-19.82,44.31
			c-3.21,11.16-4.57,23.26-4.03,36.36c0.54,13.09,2.7,28.1,6.47,45.02c5.26,23.22,15.2,45.59,29.77,67.11
			c14.58,21.53,31.09,41.3,49.51,59.36c18.42,18.04,37.38,33.94,56.87,47.74c19.49,13.78,37.01,24.36,52.49,31.76
			c-0.51,4.03-0.82,7.16-0.97,9.41c-0.16,2.26,2.39,4.14,7.6,5.65c7.39,2.13,12.61,2.72,15.75,1.74c3.09-0.99,4.96-1.4,5.58-1.22
			c0.31,0.09,0.64,1.24,1.01,3.43c9.84,1.6,19.24,1.41,28.14-0.62c8.92-1.99,17.19-3.58,24.85-4.7c0.28-3.23,0.62-5.65,1.06-7.18
			c1.35-4.63,3.42-8.4,6.28-11.32c-1.39-2.08-2.49-4.07-3.26-5.95c0.85-1.84,1.6-3.5,2.2-5.01c0.59-1.49,1.04-2.8,1.39-3.95
			c-0.79-1.91-1.82-6.37-3.12-13.44"/>
	</g>
</g>
</svg>
